<mxfile host="app.diagrams.net" modified="2023-05-26T04:44:00.940Z" agent="Mozilla/5.0 (Windows NT 10.0; Win64; x64) AppleWebKit/537.36 (KHTML, like Gecko) Chrome/113.0.0.0 Safari/537.36" etag="ZJOB2tZ0Ofa4n4Pr-PVn" version="21.3.4" type="device">
  <diagram name="페이지-1" id="cBMwD5rRArSJ3ch69QIj">
    <mxGraphModel dx="934" dy="820" grid="1" gridSize="10" guides="1" tooltips="1" connect="1" arrows="1" fold="1" page="1" pageScale="1" pageWidth="1169" pageHeight="827" math="0" shadow="0">
      <root>
        <mxCell id="0" />
        <mxCell id="1" parent="0" />
        <mxCell id="ydgMWhyjQpFF74i9lBRx-8" style="rounded=0;orthogonalLoop=1;jettySize=auto;html=1;entryX=0.5;entryY=0;entryDx=0;entryDy=0;" edge="1" parent="1" source="ydgMWhyjQpFF74i9lBRx-1" target="ydgMWhyjQpFF74i9lBRx-2">
          <mxGeometry relative="1" as="geometry" />
        </mxCell>
        <mxCell id="ydgMWhyjQpFF74i9lBRx-9" style="edgeStyle=none;shape=connector;rounded=0;orthogonalLoop=1;jettySize=auto;html=1;labelBackgroundColor=default;strokeColor=default;fontFamily=Helvetica;fontSize=11;fontColor=default;endArrow=classic;" edge="1" parent="1" source="ydgMWhyjQpFF74i9lBRx-1" target="ydgMWhyjQpFF74i9lBRx-3">
          <mxGeometry relative="1" as="geometry" />
        </mxCell>
        <mxCell id="ydgMWhyjQpFF74i9lBRx-10" style="edgeStyle=none;shape=connector;rounded=0;orthogonalLoop=1;jettySize=auto;html=1;labelBackgroundColor=default;strokeColor=default;fontFamily=Helvetica;fontSize=11;fontColor=default;endArrow=classic;" edge="1" parent="1" source="ydgMWhyjQpFF74i9lBRx-1" target="ydgMWhyjQpFF74i9lBRx-6">
          <mxGeometry relative="1" as="geometry" />
        </mxCell>
        <mxCell id="ydgMWhyjQpFF74i9lBRx-11" style="edgeStyle=none;shape=connector;rounded=0;orthogonalLoop=1;jettySize=auto;html=1;entryX=0.5;entryY=0;entryDx=0;entryDy=0;labelBackgroundColor=default;strokeColor=default;fontFamily=Helvetica;fontSize=11;fontColor=default;endArrow=classic;" edge="1" parent="1" source="ydgMWhyjQpFF74i9lBRx-1" target="ydgMWhyjQpFF74i9lBRx-5">
          <mxGeometry relative="1" as="geometry" />
        </mxCell>
        <mxCell id="ydgMWhyjQpFF74i9lBRx-12" style="edgeStyle=none;shape=connector;rounded=0;orthogonalLoop=1;jettySize=auto;html=1;entryX=0.596;entryY=0.036;entryDx=0;entryDy=0;entryPerimeter=0;labelBackgroundColor=default;strokeColor=default;fontFamily=Helvetica;fontSize=11;fontColor=default;endArrow=classic;" edge="1" parent="1" source="ydgMWhyjQpFF74i9lBRx-1" target="ydgMWhyjQpFF74i9lBRx-4">
          <mxGeometry relative="1" as="geometry" />
        </mxCell>
        <mxCell id="ydgMWhyjQpFF74i9lBRx-1" value="메모장" style="rounded=1;arcSize=10;whiteSpace=wrap;html=1;align=center;" vertex="1" parent="1">
          <mxGeometry x="485" y="120" width="100" height="40" as="geometry" />
        </mxCell>
        <mxCell id="ydgMWhyjQpFF74i9lBRx-2" value="일련번호" style="ellipse;whiteSpace=wrap;html=1;align=center;fontStyle=4;" vertex="1" parent="1">
          <mxGeometry x="220" y="250" width="100" height="40" as="geometry" />
        </mxCell>
        <mxCell id="ydgMWhyjQpFF74i9lBRx-3" value="작성자" style="ellipse;whiteSpace=wrap;html=1;align=center;" vertex="1" parent="1">
          <mxGeometry x="360" y="250" width="100" height="40" as="geometry" />
        </mxCell>
        <mxCell id="ydgMWhyjQpFF74i9lBRx-4" value="내용" style="ellipse;whiteSpace=wrap;html=1;align=center;" vertex="1" parent="1">
          <mxGeometry x="760" y="250" width="100" height="40" as="geometry" />
        </mxCell>
        <mxCell id="ydgMWhyjQpFF74i9lBRx-5" value="제목" style="ellipse;whiteSpace=wrap;html=1;align=center;" vertex="1" parent="1">
          <mxGeometry x="630" y="250" width="100" height="40" as="geometry" />
        </mxCell>
        <mxCell id="ydgMWhyjQpFF74i9lBRx-6" value="작성일자" style="ellipse;whiteSpace=wrap;html=1;align=center;" vertex="1" parent="1">
          <mxGeometry x="490" y="250" width="100" height="40" as="geometry" />
        </mxCell>
      </root>
    </mxGraphModel>
  </diagram>
</mxfile>
